<svg id="visual" viewBox="0 0 900 600" width="900" height="600" xmlns="http://www.w3.org/2000/svg" xmlns:xlink="http://www.w3.org/1999/xlink" version="1.1"><rect x="0" y="0" width="900" height="600" fill="#000"></rect><g fill="#df1f26"><circle r="46" cx="568" cy="235"></circle><circle r="12" cx="330" cy="91"></circle><circle r="28" cx="222" cy="474"></circle><circle r="37" cx="245" cy="153"></circle><circle r="42" cx="568" cy="358"></circle><circle r="40" cx="753" cy="444"></circle><circle r="23" cx="194" cy="51"></circle><circle r="40" cx="815" cy="229"></circle><circle r="41" cx="337" cy="447"></circle><circle r="37" cx="70" cy="149"></circle><circle r="20" cx="157" cy="361"></circle><circle r="15" cx="766" cy="547"></circle><circle r="38" cx="547" cy="51"></circle><circle r="14" cx="323" cy="546"></circle><circle r="18" cx="673" cy="213"></circle><circle r="15" cx="360" cy="269"></circle><circle r="28" cx="518" cy="140"></circle><circle r="40" cx="795" cy="85"></circle><circle r="23" cx="483" cy="427"></circle><circle r="27" cx="104" cy="525"></circle><circle r="21" cx="683" cy="376"></circle><circle r="43" cx="397" cy="156"></circle><circle r="21" cx="634" cy="113"></circle><circle r="26" cx="63" cy="376"></circle><circle r="13" cx="532" cy="536"></circle><circle r="18" cx="658" cy="513"></circle><circle r="19" cx="836" cy="396"></circle><circle r="40" cx="267" cy="273"></circle><circle r="12" cx="848" cy="505"></circle></g></svg>